<mxfile host="app.diagrams.net" modified="2023-12-28T18:46:32.670Z" agent="Mozilla/5.0 (Windows NT 10.0; Win64; x64) AppleWebKit/537.36 (KHTML, like Gecko) Chrome/120.0.0.0 Safari/537.36" etag="OBfwYUC-Orp0qT4fcgum" version="22.1.15" type="google">
  <diagram name="Page-1" id="x16oOLmfSuXU1Z4fn3fX">
    <mxGraphModel grid="0" page="1" gridSize="10" guides="1" tooltips="1" connect="1" arrows="1" fold="1" pageScale="1" pageWidth="850" pageHeight="1100" background="#ffffff" math="0" shadow="0">
      <root>
        <mxCell id="0" />
        <mxCell id="1" parent="0" />
        <mxCell id="_JvIo_ulSZdTN_FPrXAl-68" style="edgeStyle=orthogonalEdgeStyle;rounded=0;orthogonalLoop=1;jettySize=auto;html=1;exitX=0.5;exitY=0;exitDx=0;exitDy=0;entryX=0.5;entryY=1;entryDx=0;entryDy=0;startArrow=ERzeroToMany;startFill=0;endArrow=ERone;endFill=0;endSize=10;startSize=10;" edge="1" parent="1" source="1yXG8h2ckXHNTyExK5BX-1" target="_JvIo_ulSZdTN_FPrXAl-37">
          <mxGeometry relative="1" as="geometry">
            <Array as="points">
              <mxPoint x="428" y="-690" />
              <mxPoint x="428" y="-690" />
            </Array>
          </mxGeometry>
        </mxCell>
        <mxCell id="_JvIo_ulSZdTN_FPrXAl-70" style="edgeStyle=orthogonalEdgeStyle;rounded=0;orthogonalLoop=1;jettySize=auto;html=1;exitX=0.5;exitY=1;exitDx=0;exitDy=0;entryX=0.5;entryY=0;entryDx=0;entryDy=0;endArrow=ERone;endFill=0;startArrow=ERoneToMany;startFill=0;endSize=10;startSize=10;" edge="1" parent="1" source="1yXG8h2ckXHNTyExK5BX-1" target="_JvIo_ulSZdTN_FPrXAl-49">
          <mxGeometry relative="1" as="geometry" />
        </mxCell>
        <mxCell id="1yXG8h2ckXHNTyExK5BX-1" value="Order" style="swimlane;whiteSpace=wrap;html=1;" vertex="1" parent="1">
          <mxGeometry x="328" y="-680" width="200" height="395" as="geometry" />
        </mxCell>
        <mxCell id="1yXG8h2ckXHNTyExK5BX-4" value="&lt;font color=&quot;#000000&quot; style=&quot;&quot;&gt;&lt;span style=&quot;white-space: pre;&quot;&gt;&#x9;&lt;/span&gt;PK: Order_ID&lt;/font&gt;" style="text;html=1;strokeColor=none;fillColor=none;align=left;verticalAlign=middle;whiteSpace=wrap;rounded=0;fontColor=#9999FF;fontStyle=1" vertex="1" parent="1yXG8h2ckXHNTyExK5BX-1">
          <mxGeometry y="30" width="200" height="30" as="geometry" />
        </mxCell>
        <mxCell id="1yXG8h2ckXHNTyExK5BX-5" value="&lt;font color=&quot;#007fff&quot;&gt;&lt;b&gt;&lt;span style=&quot;white-space: pre;&quot;&gt;&#x9;&lt;/span&gt;FK: Location_ID&lt;/b&gt;&lt;/font&gt;" style="text;html=1;strokeColor=none;fillColor=none;align=left;verticalAlign=middle;whiteSpace=wrap;rounded=0;" vertex="1" parent="1yXG8h2ckXHNTyExK5BX-1">
          <mxGeometry y="91" width="200" height="30" as="geometry" />
        </mxCell>
        <mxCell id="_JvIo_ulSZdTN_FPrXAl-18" value="&lt;font color=&quot;#ff8000&quot;&gt;&lt;b&gt;&lt;span style=&quot;white-space: pre;&quot;&gt;&#x9;&lt;/span&gt;FK: Order_Date&lt;/b&gt;&lt;/font&gt;" style="text;html=1;strokeColor=none;fillColor=none;align=left;verticalAlign=middle;whiteSpace=wrap;rounded=0;" vertex="1" parent="1yXG8h2ckXHNTyExK5BX-1">
          <mxGeometry y="121" width="200" height="30" as="geometry" />
        </mxCell>
        <mxCell id="_JvIo_ulSZdTN_FPrXAl-53" value="&lt;b&gt;&lt;font color=&quot;#007fff&quot;&gt;&lt;span style=&quot;white-space: pre;&quot;&gt;&#x9;&lt;/span&gt;FK: Ship_ID&lt;/font&gt;&lt;/b&gt;" style="text;html=1;strokeColor=none;fillColor=none;align=left;verticalAlign=middle;whiteSpace=wrap;rounded=0;" vertex="1" parent="1yXG8h2ckXHNTyExK5BX-1">
          <mxGeometry y="151" width="200" height="30" as="geometry" />
        </mxCell>
        <mxCell id="_JvIo_ulSZdTN_FPrXAl-54" value="&lt;b&gt;&lt;font color=&quot;#007fff&quot;&gt;&lt;span style=&quot;white-space: pre;&quot;&gt;&#x9;&lt;/span&gt;FK: Customer_ID&lt;/font&gt;&lt;/b&gt;" style="text;html=1;strokeColor=none;fillColor=none;align=left;verticalAlign=middle;whiteSpace=wrap;rounded=0;" vertex="1" parent="1yXG8h2ckXHNTyExK5BX-1">
          <mxGeometry y="181" width="200" height="30" as="geometry" />
        </mxCell>
        <mxCell id="_JvIo_ulSZdTN_FPrXAl-55" value="&lt;font color=&quot;#00cc00&quot;&gt;&lt;b&gt;&lt;span style=&quot;white-space: pre;&quot;&gt;&#x9;&lt;/span&gt;FK: Order_Priority_ID&lt;/b&gt;&lt;/font&gt;" style="text;html=1;strokeColor=none;fillColor=none;align=left;verticalAlign=middle;whiteSpace=wrap;rounded=0;" vertex="1" parent="1yXG8h2ckXHNTyExK5BX-1">
          <mxGeometry y="211" width="200" height="30" as="geometry" />
        </mxCell>
        <mxCell id="_JvIo_ulSZdTN_FPrXAl-56" value="&lt;font color=&quot;#007fff&quot;&gt;&lt;b&gt;&lt;span style=&quot;white-space: pre;&quot;&gt;&#x9;&lt;/span&gt;FK: Product_ID&lt;/b&gt;&lt;/font&gt;" style="text;html=1;strokeColor=none;fillColor=none;align=left;verticalAlign=middle;whiteSpace=wrap;rounded=0;" vertex="1" parent="1yXG8h2ckXHNTyExK5BX-1">
          <mxGeometry y="241" width="200" height="30" as="geometry" />
        </mxCell>
        <mxCell id="_JvIo_ulSZdTN_FPrXAl-57" value="&lt;span style=&quot;white-space: pre;&quot;&gt;&#x9;&lt;/span&gt;Quantity" style="text;html=1;strokeColor=none;fillColor=none;align=left;verticalAlign=middle;whiteSpace=wrap;rounded=0;" vertex="1" parent="1yXG8h2ckXHNTyExK5BX-1">
          <mxGeometry y="271" width="200" height="30" as="geometry" />
        </mxCell>
        <mxCell id="_JvIo_ulSZdTN_FPrXAl-58" value="&lt;span style=&quot;white-space: pre;&quot;&gt;&#x9;&lt;/span&gt;Sales" style="text;html=1;strokeColor=none;fillColor=none;align=left;verticalAlign=middle;whiteSpace=wrap;rounded=0;" vertex="1" parent="1yXG8h2ckXHNTyExK5BX-1">
          <mxGeometry y="301" width="200" height="30" as="geometry" />
        </mxCell>
        <mxCell id="_JvIo_ulSZdTN_FPrXAl-59" value="&lt;span style=&quot;white-space: pre;&quot;&gt;&#x9;&lt;/span&gt;Discount" style="text;html=1;strokeColor=none;fillColor=none;align=left;verticalAlign=middle;whiteSpace=wrap;rounded=0;" vertex="1" parent="1yXG8h2ckXHNTyExK5BX-1">
          <mxGeometry y="331" width="200" height="30" as="geometry" />
        </mxCell>
        <mxCell id="_JvIo_ulSZdTN_FPrXAl-60" value="&lt;span style=&quot;white-space: pre;&quot;&gt;&#x9;&lt;/span&gt;Profit" style="text;html=1;strokeColor=none;fillColor=none;align=left;verticalAlign=middle;whiteSpace=wrap;rounded=0;" vertex="1" parent="1yXG8h2ckXHNTyExK5BX-1">
          <mxGeometry y="361" width="200" height="30" as="geometry" />
        </mxCell>
        <mxCell id="l98ecOULR_FoofYDJhmJ-1" value="&lt;font color=&quot;#000000&quot; style=&quot;&quot;&gt;&lt;span style=&quot;white-space: pre;&quot;&gt;&#x9;&lt;/span&gt;Order_Local_ID&lt;/font&gt;" style="text;html=1;strokeColor=none;fillColor=none;align=left;verticalAlign=middle;whiteSpace=wrap;rounded=0;fontColor=#9999FF;fontStyle=1" vertex="1" parent="1yXG8h2ckXHNTyExK5BX-1">
          <mxGeometry y="60" width="200" height="30" as="geometry" />
        </mxCell>
        <mxCell id="1yXG8h2ckXHNTyExK5BX-2" value="Customer" style="swimlane;whiteSpace=wrap;html=1;" vertex="1" parent="1">
          <mxGeometry x="68" y="-510" width="200" height="130" as="geometry" />
        </mxCell>
        <mxCell id="1yXG8h2ckXHNTyExK5BX-12" value="&lt;font color=&quot;#007fff&quot;&gt;&lt;b&gt;&lt;span style=&quot;white-space: pre;&quot;&gt;&#x9;&lt;/span&gt;PK: Customer_ID&lt;/b&gt;&lt;/font&gt;" style="text;html=1;strokeColor=none;fillColor=none;align=left;verticalAlign=middle;whiteSpace=wrap;rounded=0;" vertex="1" parent="1yXG8h2ckXHNTyExK5BX-2">
          <mxGeometry y="30" width="200" height="30" as="geometry" />
        </mxCell>
        <mxCell id="1yXG8h2ckXHNTyExK5BX-13" value="&#x9;&lt;font color=&quot;#00cc00&quot;&gt;&lt;b&gt;&lt;span style=&quot;white-space: pre;&quot;&gt;&#x9;&lt;/span&gt;FK: Customer_Segment_ID&lt;/b&gt;&lt;/font&gt;" style="text;html=1;strokeColor=none;fillColor=none;align=left;verticalAlign=middle;whiteSpace=wrap;rounded=0;" vertex="1" parent="1yXG8h2ckXHNTyExK5BX-2">
          <mxGeometry y="58" width="200" height="30" as="geometry" />
        </mxCell>
        <mxCell id="_JvIo_ulSZdTN_FPrXAl-28" value="&lt;span style=&quot;white-space: pre;&quot;&gt;&#x9;&lt;/span&gt;Customer_Name" style="text;html=1;strokeColor=none;fillColor=none;align=left;verticalAlign=middle;whiteSpace=wrap;rounded=0;" vertex="1" parent="1yXG8h2ckXHNTyExK5BX-2">
          <mxGeometry y="88" width="200" height="30" as="geometry" />
        </mxCell>
        <mxCell id="1yXG8h2ckXHNTyExK5BX-3" value="Product" style="swimlane;whiteSpace=wrap;html=1;" vertex="1" parent="1">
          <mxGeometry x="578" y="-510" width="200" height="130" as="geometry" />
        </mxCell>
        <mxCell id="1yXG8h2ckXHNTyExK5BX-8" value="&lt;font color=&quot;#007fff&quot;&gt;&lt;b&gt;&lt;span style=&quot;white-space: pre;&quot;&gt;&#x9;&lt;/span&gt;PK: Product_ID&lt;/b&gt;&lt;/font&gt;" style="text;html=1;strokeColor=none;fillColor=none;align=left;verticalAlign=middle;whiteSpace=wrap;rounded=0;" vertex="1" parent="1yXG8h2ckXHNTyExK5BX-3">
          <mxGeometry y="30" width="200" height="30" as="geometry" />
        </mxCell>
        <mxCell id="1yXG8h2ckXHNTyExK5BX-10" value="&lt;font color=&quot;#00cc00&quot;&gt;&lt;b&gt;&lt;span style=&quot;white-space: pre;&quot;&gt;&#x9;&lt;/span&gt;FK: Product_Category_ID&lt;/b&gt;&lt;/font&gt;" style="text;html=1;strokeColor=none;fillColor=none;align=left;verticalAlign=middle;whiteSpace=wrap;rounded=0;" vertex="1" parent="1yXG8h2ckXHNTyExK5BX-3">
          <mxGeometry y="60" width="200" height="30" as="geometry" />
        </mxCell>
        <mxCell id="_JvIo_ulSZdTN_FPrXAl-22" value="&lt;span style=&quot;white-space: pre;&quot;&gt;&#x9;&lt;/span&gt;Product_Name" style="text;html=1;strokeColor=none;fillColor=none;align=left;verticalAlign=middle;whiteSpace=wrap;rounded=0;" vertex="1" parent="1yXG8h2ckXHNTyExK5BX-3">
          <mxGeometry y="90" width="200" height="30" as="geometry" />
        </mxCell>
        <mxCell id="_JvIo_ulSZdTN_FPrXAl-1" value="Product_Category" style="swimlane;whiteSpace=wrap;html=1;" vertex="1" parent="1">
          <mxGeometry x="578" y="-350" width="200" height="130" as="geometry" />
        </mxCell>
        <mxCell id="_JvIo_ulSZdTN_FPrXAl-2" value="&lt;font color=&quot;#00cc00&quot;&gt;&lt;b&gt;&lt;span style=&quot;white-space: pre;&quot;&gt;&#x9;&lt;/span&gt;PK: Product_Category_ID&lt;/b&gt;&lt;/font&gt;" style="text;html=1;strokeColor=none;fillColor=none;align=left;verticalAlign=middle;whiteSpace=wrap;rounded=0;" vertex="1" parent="_JvIo_ulSZdTN_FPrXAl-1">
          <mxGeometry y="30" width="200" height="30" as="geometry" />
        </mxCell>
        <mxCell id="_JvIo_ulSZdTN_FPrXAl-3" value="&lt;span style=&quot;white-space: pre;&quot;&gt;&#x9;&lt;/span&gt;Category" style="text;html=1;strokeColor=none;fillColor=none;align=left;verticalAlign=middle;whiteSpace=wrap;rounded=0;" vertex="1" parent="_JvIo_ulSZdTN_FPrXAl-1">
          <mxGeometry y="60" width="200" height="30" as="geometry" />
        </mxCell>
        <mxCell id="_JvIo_ulSZdTN_FPrXAl-23" value="&lt;span style=&quot;white-space: pre;&quot;&gt;&#x9;&lt;/span&gt;Sub_Category" style="text;html=1;strokeColor=none;fillColor=none;align=left;verticalAlign=middle;whiteSpace=wrap;rounded=0;" vertex="1" parent="_JvIo_ulSZdTN_FPrXAl-1">
          <mxGeometry y="90" width="200" height="30" as="geometry" />
        </mxCell>
        <mxCell id="_JvIo_ulSZdTN_FPrXAl-4" value="Location" style="swimlane;whiteSpace=wrap;html=1;" vertex="1" parent="1">
          <mxGeometry x="68" y="-790" width="200" height="210" as="geometry" />
        </mxCell>
        <mxCell id="_JvIo_ulSZdTN_FPrXAl-5" value="&lt;font color=&quot;#007fff&quot;&gt;&lt;b&gt;&lt;span style=&quot;white-space: pre;&quot;&gt;&#x9;&lt;/span&gt;PK: Location_ID&lt;/b&gt;&lt;/font&gt;" style="text;html=1;strokeColor=none;fillColor=none;align=left;verticalAlign=middle;whiteSpace=wrap;rounded=0;" vertex="1" parent="_JvIo_ulSZdTN_FPrXAl-4">
          <mxGeometry y="30" width="200" height="30" as="geometry" />
        </mxCell>
        <mxCell id="_JvIo_ulSZdTN_FPrXAl-6" value="&lt;font color=&quot;#00cc00&quot;&gt;&lt;b&gt;&lt;span style=&quot;white-space: pre;&quot;&gt;&#x9;&lt;/span&gt;FK: Market_ID&lt;/b&gt;&lt;/font&gt;" style="text;html=1;strokeColor=none;fillColor=none;align=left;verticalAlign=middle;whiteSpace=wrap;rounded=0;" vertex="1" parent="_JvIo_ulSZdTN_FPrXAl-4">
          <mxGeometry y="60" width="200" height="30" as="geometry" />
        </mxCell>
        <mxCell id="_JvIo_ulSZdTN_FPrXAl-14" value="&lt;span style=&quot;white-space: pre;&quot;&gt;&#x9;&lt;/span&gt;Country" style="text;html=1;strokeColor=none;fillColor=none;align=left;verticalAlign=middle;whiteSpace=wrap;rounded=0;" vertex="1" parent="_JvIo_ulSZdTN_FPrXAl-4">
          <mxGeometry y="90" width="200" height="30" as="geometry" />
        </mxCell>
        <mxCell id="_JvIo_ulSZdTN_FPrXAl-15" value="&lt;span style=&quot;white-space: pre;&quot;&gt;&#x9;&lt;/span&gt;State" style="text;html=1;strokeColor=none;fillColor=none;align=left;verticalAlign=middle;whiteSpace=wrap;rounded=0;" vertex="1" parent="_JvIo_ulSZdTN_FPrXAl-4">
          <mxGeometry y="120" width="200" height="30" as="geometry" />
        </mxCell>
        <mxCell id="_JvIo_ulSZdTN_FPrXAl-16" value="&lt;span style=&quot;white-space: pre;&quot;&gt;&#x9;&lt;/span&gt;Region" style="text;html=1;strokeColor=none;fillColor=none;align=left;verticalAlign=middle;whiteSpace=wrap;rounded=0;" vertex="1" parent="_JvIo_ulSZdTN_FPrXAl-4">
          <mxGeometry y="150" width="200" height="30" as="geometry" />
        </mxCell>
        <mxCell id="_JvIo_ulSZdTN_FPrXAl-17" value="&lt;span style=&quot;white-space: pre;&quot;&gt;&#x9;&lt;/span&gt;City" style="text;html=1;strokeColor=none;fillColor=none;align=left;verticalAlign=middle;whiteSpace=wrap;rounded=0;" vertex="1" parent="_JvIo_ulSZdTN_FPrXAl-4">
          <mxGeometry y="180" width="200" height="30" as="geometry" />
        </mxCell>
        <mxCell id="_JvIo_ulSZdTN_FPrXAl-10" value="Market" style="swimlane;whiteSpace=wrap;html=1;" vertex="1" parent="1">
          <mxGeometry x="68" y="-950" width="200" height="120" as="geometry" />
        </mxCell>
        <mxCell id="_JvIo_ulSZdTN_FPrXAl-11" value="&lt;font color=&quot;#00cc00&quot;&gt;&lt;b&gt;&lt;span style=&quot;white-space: pre;&quot;&gt;&#x9;&lt;/span&gt;PK: Market_ID&lt;/b&gt;&lt;/font&gt;" style="text;html=1;strokeColor=none;fillColor=none;align=left;verticalAlign=middle;whiteSpace=wrap;rounded=0;" vertex="1" parent="_JvIo_ulSZdTN_FPrXAl-10">
          <mxGeometry y="30" width="200" height="30" as="geometry" />
        </mxCell>
        <mxCell id="_JvIo_ulSZdTN_FPrXAl-12" value="&lt;span style=&quot;white-space: pre;&quot;&gt;&#x9;&lt;/span&gt;Market" style="text;html=1;strokeColor=none;fillColor=none;align=left;verticalAlign=middle;whiteSpace=wrap;rounded=0;" vertex="1" parent="_JvIo_ulSZdTN_FPrXAl-10">
          <mxGeometry y="60" width="200" height="30" as="geometry" />
        </mxCell>
        <mxCell id="_JvIo_ulSZdTN_FPrXAl-13" value="&lt;span style=&quot;white-space: pre;&quot;&gt;&#x9;&lt;/span&gt;Market2" style="text;html=1;strokeColor=none;fillColor=none;align=left;verticalAlign=middle;whiteSpace=wrap;rounded=0;" vertex="1" parent="_JvIo_ulSZdTN_FPrXAl-10">
          <mxGeometry y="90" width="200" height="30" as="geometry" />
        </mxCell>
        <mxCell id="_JvIo_ulSZdTN_FPrXAl-24" value="Customer_Segment" style="swimlane;whiteSpace=wrap;html=1;" vertex="1" parent="1">
          <mxGeometry x="68" y="-350" width="200" height="130" as="geometry" />
        </mxCell>
        <mxCell id="_JvIo_ulSZdTN_FPrXAl-25" value="&lt;font color=&quot;#00cc00&quot;&gt;&lt;b&gt;&lt;span style=&quot;white-space: pre;&quot;&gt;&#x9;&lt;/span&gt;PK: Customer_Segment_ID&lt;/b&gt;&lt;/font&gt;" style="text;html=1;strokeColor=none;fillColor=none;align=left;verticalAlign=middle;whiteSpace=wrap;rounded=0;" vertex="1" parent="_JvIo_ulSZdTN_FPrXAl-24">
          <mxGeometry y="30" width="200" height="30" as="geometry" />
        </mxCell>
        <mxCell id="_JvIo_ulSZdTN_FPrXAl-26" value="&lt;span style=&quot;white-space: pre;&quot;&gt;&#x9;&lt;/span&gt;Segment" style="text;html=1;strokeColor=none;fillColor=none;align=left;verticalAlign=middle;whiteSpace=wrap;rounded=0;" vertex="1" parent="_JvIo_ulSZdTN_FPrXAl-24">
          <mxGeometry y="58" width="200" height="30" as="geometry" />
        </mxCell>
        <mxCell id="_JvIo_ulSZdTN_FPrXAl-29" value="Ship" style="swimlane;whiteSpace=wrap;html=1;startSize=23;" vertex="1" parent="1">
          <mxGeometry x="578" y="-790" width="200" height="210" as="geometry" />
        </mxCell>
        <mxCell id="_JvIo_ulSZdTN_FPrXAl-30" value="&lt;font color=&quot;#007fff&quot;&gt;&lt;b&gt;&lt;span style=&quot;white-space: pre;&quot;&gt;&#x9;&lt;/span&gt;PK: Ship_ID&lt;/b&gt;&lt;/font&gt;" style="text;html=1;strokeColor=none;fillColor=none;align=left;verticalAlign=middle;whiteSpace=wrap;rounded=0;" vertex="1" parent="_JvIo_ulSZdTN_FPrXAl-29">
          <mxGeometry y="30" width="200" height="30" as="geometry" />
        </mxCell>
        <mxCell id="_JvIo_ulSZdTN_FPrXAl-31" value="&lt;font color=&quot;#00cc00&quot;&gt;&lt;b&gt;&lt;span style=&quot;white-space: pre;&quot;&gt;&#x9;&lt;/span&gt;FK: Ship_Mode_ID&lt;/b&gt;&lt;/font&gt;" style="text;html=1;strokeColor=none;fillColor=none;align=left;verticalAlign=middle;whiteSpace=wrap;rounded=0;" vertex="1" parent="_JvIo_ulSZdTN_FPrXAl-29">
          <mxGeometry y="60" width="200" height="30" as="geometry" />
        </mxCell>
        <mxCell id="_JvIo_ulSZdTN_FPrXAl-32" value="&lt;font color=&quot;#ff8000&quot;&gt;&lt;b&gt;&lt;span style=&quot;white-space: pre;&quot;&gt;&#x9;&lt;/span&gt;FK: Ship_Date&lt;/b&gt;&lt;/font&gt;" style="text;html=1;strokeColor=none;fillColor=none;align=left;verticalAlign=middle;whiteSpace=wrap;rounded=0;" vertex="1" parent="_JvIo_ulSZdTN_FPrXAl-29">
          <mxGeometry y="90" width="200" height="30" as="geometry" />
        </mxCell>
        <mxCell id="_JvIo_ulSZdTN_FPrXAl-48" value="&lt;span style=&quot;&quot;&gt;&lt;span style=&quot;white-space: pre;&quot;&gt;&amp;nbsp;&lt;span style=&quot;white-space: pre;&quot;&gt;&#x9;&lt;/span&gt;&lt;/span&gt;&lt;/span&gt;Shipping_Cost" style="text;html=1;strokeColor=none;fillColor=none;align=left;verticalAlign=middle;whiteSpace=wrap;rounded=0;" vertex="1" parent="_JvIo_ulSZdTN_FPrXAl-29">
          <mxGeometry y="120" width="200" height="30" as="geometry" />
        </mxCell>
        <mxCell id="_JvIo_ulSZdTN_FPrXAl-37" value="Calendar_Date" style="swimlane;whiteSpace=wrap;html=1;startSize=23;" vertex="1" parent="1">
          <mxGeometry x="328" y="-868" width="200" height="120" as="geometry" />
        </mxCell>
        <mxCell id="_JvIo_ulSZdTN_FPrXAl-38" value="&lt;font color=&quot;#ff8000&quot;&gt;&lt;b&gt;&lt;span style=&quot;white-space: pre;&quot;&gt;&#x9;&lt;/span&gt;PK: Date_ID&lt;/b&gt;&lt;/font&gt;" style="text;html=1;strokeColor=none;fillColor=none;align=left;verticalAlign=middle;whiteSpace=wrap;rounded=0;" vertex="1" parent="_JvIo_ulSZdTN_FPrXAl-37">
          <mxGeometry y="30" width="200" height="30" as="geometry" />
        </mxCell>
        <mxCell id="_JvIo_ulSZdTN_FPrXAl-39" value="&lt;span style=&quot;white-space: pre;&quot;&gt;&#x9;&lt;/span&gt;Date" style="text;html=1;strokeColor=none;fillColor=none;align=left;verticalAlign=middle;whiteSpace=wrap;rounded=0;" vertex="1" parent="_JvIo_ulSZdTN_FPrXAl-37">
          <mxGeometry y="60" width="200" height="30" as="geometry" />
        </mxCell>
        <mxCell id="_JvIo_ulSZdTN_FPrXAl-45" value="Ship_Mode" style="swimlane;whiteSpace=wrap;html=1;startSize=23;" vertex="1" parent="1">
          <mxGeometry x="578" y="-950" width="200" height="120" as="geometry" />
        </mxCell>
        <mxCell id="_JvIo_ulSZdTN_FPrXAl-46" value="&lt;font color=&quot;#00cc00&quot;&gt;&lt;b&gt;&lt;span style=&quot;white-space: pre;&quot;&gt;&#x9;&lt;/span&gt;PK: Ship_Mode_ID&lt;/b&gt;&lt;/font&gt;" style="text;html=1;strokeColor=none;fillColor=none;align=left;verticalAlign=middle;whiteSpace=wrap;rounded=0;" vertex="1" parent="_JvIo_ulSZdTN_FPrXAl-45">
          <mxGeometry y="30" width="200" height="30" as="geometry" />
        </mxCell>
        <mxCell id="_JvIo_ulSZdTN_FPrXAl-47" value="&lt;span style=&quot;white-space: pre;&quot;&gt;&#x9;&lt;/span&gt;Ship_Mode" style="text;html=1;strokeColor=none;fillColor=none;align=left;verticalAlign=middle;whiteSpace=wrap;rounded=0;" vertex="1" parent="_JvIo_ulSZdTN_FPrXAl-45">
          <mxGeometry y="60" width="200" height="30" as="geometry" />
        </mxCell>
        <mxCell id="_JvIo_ulSZdTN_FPrXAl-49" value="Order_Priority" style="swimlane;whiteSpace=wrap;html=1;" vertex="1" parent="1">
          <mxGeometry x="328" y="-229" width="200" height="100" as="geometry" />
        </mxCell>
        <mxCell id="_JvIo_ulSZdTN_FPrXAl-50" value="&lt;b&gt;&lt;span style=&quot;white-space: pre;&quot;&gt;&#x9;&lt;/span&gt;PK: Order_Priority_ID&lt;/b&gt;" style="text;html=1;strokeColor=none;fillColor=none;align=left;verticalAlign=middle;whiteSpace=wrap;rounded=0;fontColor=#00CC00;" vertex="1" parent="_JvIo_ulSZdTN_FPrXAl-49">
          <mxGeometry y="30" width="200" height="30" as="geometry" />
        </mxCell>
        <mxCell id="_JvIo_ulSZdTN_FPrXAl-51" value="&lt;span style=&quot;&quot;&gt;&lt;span style=&quot;white-space: pre;&quot;&gt;&amp;nbsp;&amp;nbsp;&amp;nbsp;&amp;nbsp;&lt;span style=&quot;white-space: pre;&quot;&gt;&#x9;&lt;/span&gt;&lt;/span&gt;&lt;/span&gt;Order_Priority" style="text;html=1;strokeColor=none;fillColor=none;align=left;verticalAlign=middle;whiteSpace=wrap;rounded=0;" vertex="1" parent="_JvIo_ulSZdTN_FPrXAl-49">
          <mxGeometry y="60" width="200" height="30" as="geometry" />
        </mxCell>
        <mxCell id="_JvIo_ulSZdTN_FPrXAl-61" style="edgeStyle=orthogonalEdgeStyle;rounded=0;orthogonalLoop=1;jettySize=auto;html=1;exitX=0;exitY=0.75;exitDx=0;exitDy=0;entryX=1;entryY=0.5;entryDx=0;entryDy=0;startArrow=ERoneToMany;startFill=0;endArrow=ERone;endFill=0;endSize=10;startSize=10;" edge="1" parent="1" source="_JvIo_ulSZdTN_FPrXAl-18" target="_JvIo_ulSZdTN_FPrXAl-14">
          <mxGeometry relative="1" as="geometry" />
        </mxCell>
        <mxCell id="_JvIo_ulSZdTN_FPrXAl-62" style="edgeStyle=orthogonalEdgeStyle;rounded=0;orthogonalLoop=1;jettySize=auto;html=1;exitX=0;exitY=0.75;exitDx=0;exitDy=0;entryX=0.5;entryY=0;entryDx=0;entryDy=0;startArrow=ERoneToMany;startFill=0;endArrow=ERone;endFill=0;endSize=10;startSize=10;" edge="1" parent="1" source="_JvIo_ulSZdTN_FPrXAl-53" target="1yXG8h2ckXHNTyExK5BX-2">
          <mxGeometry relative="1" as="geometry" />
        </mxCell>
        <mxCell id="_JvIo_ulSZdTN_FPrXAl-65" style="edgeStyle=orthogonalEdgeStyle;rounded=0;orthogonalLoop=1;jettySize=auto;html=1;exitX=1;exitY=0.75;exitDx=0;exitDy=0;entryX=1;entryY=0.75;entryDx=0;entryDy=0;startArrow=ERoneToMany;startFill=0;endArrow=ERone;endFill=0;endSize=10;startSize=10;" edge="1" parent="1" source="_JvIo_ulSZdTN_FPrXAl-22" target="_JvIo_ulSZdTN_FPrXAl-3">
          <mxGeometry relative="1" as="geometry">
            <Array as="points">
              <mxPoint x="808" y="-397" />
              <mxPoint x="808" y="-267" />
              <mxPoint x="778" y="-267" />
            </Array>
          </mxGeometry>
        </mxCell>
        <mxCell id="_JvIo_ulSZdTN_FPrXAl-66" style="edgeStyle=orthogonalEdgeStyle;rounded=0;orthogonalLoop=1;jettySize=auto;html=1;exitX=1;exitY=0.5;exitDx=0;exitDy=0;entryX=0.5;entryY=0;entryDx=0;entryDy=0;startArrow=ERoneToMany;startFill=0;endArrow=ERone;endFill=0;endSize=10;startSize=10;" edge="1" parent="1" source="_JvIo_ulSZdTN_FPrXAl-53" target="1yXG8h2ckXHNTyExK5BX-3">
          <mxGeometry relative="1" as="geometry" />
        </mxCell>
        <mxCell id="_JvIo_ulSZdTN_FPrXAl-67" style="edgeStyle=orthogonalEdgeStyle;rounded=0;orthogonalLoop=1;jettySize=auto;html=1;exitX=1;exitY=1;exitDx=0;exitDy=0;entryX=0;entryY=0;entryDx=0;entryDy=0;startArrow=ERone;startFill=0;endArrow=ERone;endFill=0;endSize=10;startSize=10;" edge="1" parent="1" source="1yXG8h2ckXHNTyExK5BX-5" target="_JvIo_ulSZdTN_FPrXAl-32">
          <mxGeometry relative="1" as="geometry">
            <Array as="points">
              <mxPoint x="553" y="-590" />
              <mxPoint x="553" y="-700" />
            </Array>
          </mxGeometry>
        </mxCell>
        <mxCell id="_JvIo_ulSZdTN_FPrXAl-64" style="edgeStyle=orthogonalEdgeStyle;rounded=0;orthogonalLoop=1;jettySize=auto;html=1;exitX=0;exitY=0.5;exitDx=0;exitDy=0;startArrow=ERoneToMany;startFill=0;endArrow=ERone;endFill=0;endSize=10;startSize=10;" edge="1" parent="1" source="_JvIo_ulSZdTN_FPrXAl-28">
          <mxGeometry relative="1" as="geometry">
            <mxPoint x="68" y="-280" as="targetPoint" />
            <Array as="points">
              <mxPoint x="48" y="-407" />
              <mxPoint x="48" y="-280" />
              <mxPoint x="68" y="-280" />
            </Array>
          </mxGeometry>
        </mxCell>
        <mxCell id="_JvIo_ulSZdTN_FPrXAl-72" style="edgeStyle=orthogonalEdgeStyle;rounded=0;orthogonalLoop=1;jettySize=auto;html=1;exitX=1;exitY=0.25;exitDx=0;exitDy=0;entryX=1;entryY=0.25;entryDx=0;entryDy=0;startArrow=ERone;startFill=0;endArrow=ERoneToMany;endFill=0;endSize=10;startSize=10;" edge="1" parent="1" source="_JvIo_ulSZdTN_FPrXAl-47" target="_JvIo_ulSZdTN_FPrXAl-48">
          <mxGeometry relative="1" as="geometry" />
        </mxCell>
        <mxCell id="_JvIo_ulSZdTN_FPrXAl-73" style="edgeStyle=orthogonalEdgeStyle;rounded=0;orthogonalLoop=1;jettySize=auto;html=1;exitX=0;exitY=0.25;exitDx=0;exitDy=0;entryX=0;entryY=0.25;entryDx=0;entryDy=0;startArrow=ERone;startFill=0;endArrow=ERoneToMany;endFill=0;endSize=10;startSize=10;" edge="1" parent="1" source="_JvIo_ulSZdTN_FPrXAl-12" target="_JvIo_ulSZdTN_FPrXAl-15">
          <mxGeometry relative="1" as="geometry" />
        </mxCell>
        <mxCell id="_JvIo_ulSZdTN_FPrXAl-74" style="edgeStyle=orthogonalEdgeStyle;rounded=0;orthogonalLoop=1;jettySize=auto;html=1;entryX=0.5;entryY=0;entryDx=0;entryDy=0;startArrow=ERone;startFill=0;endArrow=ERzeroToMany;endFill=0;endSize=10;startSize=10;" edge="1" parent="1" target="_JvIo_ulSZdTN_FPrXAl-29">
          <mxGeometry relative="1" as="geometry">
            <mxPoint x="528" y="-820" as="sourcePoint" />
            <Array as="points">
              <mxPoint x="528" y="-820" />
              <mxPoint x="678" y="-820" />
            </Array>
          </mxGeometry>
        </mxCell>
      </root>
    </mxGraphModel>
  </diagram>
</mxfile>
